<mxfile host="app.diagrams.net" agent="Mozilla/5.0 (X11; Ubuntu; Linux x86_64; rv:132.0) Gecko/20100101 Firefox/132.0" version="24.8.4">
  <diagram name="Página-1" id="wmexFkZFV4C5G2_LSLB-">
    <mxGraphModel dx="1189" dy="1699" grid="1" gridSize="10" guides="1" tooltips="1" connect="1" arrows="1" fold="1" page="1" pageScale="1" pageWidth="827" pageHeight="1169" math="0" shadow="0">
      <root>
        <mxCell id="0" />
        <mxCell id="1" parent="0" />
        <mxCell id="24jAjjag3Yym39tfX2p5-33" value="CPV" style="swimlane;whiteSpace=wrap;html=1;startSize=30;" parent="1" vertex="1">
          <mxGeometry x="34" y="-933" width="200" height="60" as="geometry" />
        </mxCell>
        <mxCell id="24jAjjag3Yym39tfX2p5-34" value="codigoCPV: str&lt;div&gt;descricao: str&lt;/div&gt;" style="whiteSpace=wrap;html=1;align=left;" parent="24jAjjag3Yym39tfX2p5-33" vertex="1">
          <mxGeometry y="23" width="200" height="37" as="geometry" />
        </mxCell>
        <mxCell id="24jAjjag3Yym39tfX2p5-35" value="Fundamentacao" style="swimlane;whiteSpace=wrap;html=1;startSize=30;align=center;" parent="1" vertex="1">
          <mxGeometry x="2" y="-828" width="200" height="50" as="geometry" />
        </mxCell>
        <mxCell id="24jAjjag3Yym39tfX2p5-36" value="fundamentacao: str" style="whiteSpace=wrap;html=1;align=left;" parent="24jAjjag3Yym39tfX2p5-35" vertex="1">
          <mxGeometry y="23" width="200" height="27" as="geometry" />
        </mxCell>
        <mxCell id="xRIgmgWvNkVK1j1N1y1u-18" style="edgeStyle=orthogonalEdgeStyle;rounded=0;orthogonalLoop=1;jettySize=auto;html=1;exitX=0.5;exitY=0;exitDx=0;exitDy=0;entryX=0.5;entryY=1;entryDx=0;entryDy=0;endArrow=none;endFill=0;" parent="1" source="24jAjjag3Yym39tfX2p5-38" target="xRIgmgWvNkVK1j1N1y1u-13" edge="1">
          <mxGeometry relative="1" as="geometry">
            <mxPoint x="124.27586206896558" y="-680" as="targetPoint" />
          </mxGeometry>
        </mxCell>
        <mxCell id="24jAjjag3Yym39tfX2p5-38" value="TiposAcordoQuadro" style="swimlane;whiteSpace=wrap;html=1;startSize=30;align=center;" parent="1" vertex="1">
          <mxGeometry x="23" y="-638" width="200" height="50" as="geometry" />
        </mxCell>
        <mxCell id="24jAjjag3Yym39tfX2p5-39" value="descricaoAcordoContrato: str" style="whiteSpace=wrap;html=1;align=left;" parent="24jAjjag3Yym39tfX2p5-38" vertex="1">
          <mxGeometry y="23" width="200" height="27" as="geometry" />
        </mxCell>
        <mxCell id="24jAjjag3Yym39tfX2p5-79" value="Diagrama RELACIONAL&lt;div style=&quot;font-size: 18px;&quot;&gt;Contratos públicos&lt;/div&gt;" style="text;html=1;align=center;verticalAlign=middle;resizable=0;points=[];autosize=1;strokeColor=#6c8ebf;fillColor=#dae8fc;fontStyle=1;fontSize=18;" parent="1" vertex="1">
          <mxGeometry x="308" y="-1140" width="220" height="60" as="geometry" />
        </mxCell>
        <mxCell id="xRIgmgWvNkVK1j1N1y1u-13" value="DescricaoAcordoQuadro" style="swimlane;whiteSpace=wrap;html=1;startSize=30;align=center;" parent="1" vertex="1">
          <mxGeometry x="23" y="-740" width="200" height="50" as="geometry" />
        </mxCell>
        <mxCell id="xRIgmgWvNkVK1j1N1y1u-14" value="" style="whiteSpace=wrap;html=1;align=left;" parent="xRIgmgWvNkVK1j1N1y1u-13" vertex="1">
          <mxGeometry y="23" width="200" height="27" as="geometry" />
        </mxCell>
        <mxCell id="mXluGkaFJjg7Lm8uTVFK-21" value="" style="group" vertex="1" connectable="0" parent="1">
          <mxGeometry x="131" y="-1052" width="177" height="90" as="geometry" />
        </mxCell>
        <mxCell id="mXluGkaFJjg7Lm8uTVFK-8" value="" style="rounded=0;whiteSpace=wrap;html=1;" vertex="1" parent="mXluGkaFJjg7Lm8uTVFK-21">
          <mxGeometry width="177" height="60" as="geometry" />
        </mxCell>
        <mxCell id="mXluGkaFJjg7Lm8uTVFK-9" value="&lt;b&gt;&lt;font style=&quot;font-size: 14px;&quot;&gt;TiposContrato&lt;/font&gt;&lt;/b&gt;" style="rounded=0;whiteSpace=wrap;html=1;" vertex="1" parent="mXluGkaFJjg7Lm8uTVFK-21">
          <mxGeometry width="177" height="20" as="geometry" />
        </mxCell>
        <mxCell id="mXluGkaFJjg7Lm8uTVFK-10" value="idContrato" style="rounded=0;whiteSpace=wrap;html=1;" vertex="1" parent="mXluGkaFJjg7Lm8uTVFK-21">
          <mxGeometry x="54.575" y="20" width="122.42500000000001" height="20" as="geometry" />
        </mxCell>
        <mxCell id="mXluGkaFJjg7Lm8uTVFK-11" value="tipoContrato: str" style="rounded=0;whiteSpace=wrap;html=1;" vertex="1" parent="mXluGkaFJjg7Lm8uTVFK-21">
          <mxGeometry x="54.575" y="40" width="122.42500000000001" height="50" as="geometry" />
        </mxCell>
        <mxCell id="mXluGkaFJjg7Lm8uTVFK-12" value="PK" style="rounded=0;whiteSpace=wrap;html=1;" vertex="1" parent="mXluGkaFJjg7Lm8uTVFK-21">
          <mxGeometry y="20" width="54.575" height="20" as="geometry" />
        </mxCell>
        <mxCell id="mXluGkaFJjg7Lm8uTVFK-13" value="" style="rounded=0;whiteSpace=wrap;html=1;" vertex="1" parent="mXluGkaFJjg7Lm8uTVFK-21">
          <mxGeometry y="40" width="54.575" height="50" as="geometry" />
        </mxCell>
        <mxCell id="mXluGkaFJjg7Lm8uTVFK-30" value="" style="group" vertex="1" connectable="0" parent="1">
          <mxGeometry x="269" y="-860" width="270" height="200" as="geometry" />
        </mxCell>
        <mxCell id="mXluGkaFJjg7Lm8uTVFK-15" value="" style="rounded=0;whiteSpace=wrap;html=1;" vertex="1" parent="mXluGkaFJjg7Lm8uTVFK-30">
          <mxGeometry width="226" height="74.99999999999999" as="geometry" />
        </mxCell>
        <mxCell id="mXluGkaFJjg7Lm8uTVFK-16" value="&lt;b&gt;&lt;font style=&quot;font-size: 14px;&quot;&gt;Contrato&lt;/font&gt;&lt;/b&gt;" style="rounded=0;whiteSpace=wrap;html=1;" vertex="1" parent="mXluGkaFJjg7Lm8uTVFK-30">
          <mxGeometry width="270" height="25" as="geometry" />
        </mxCell>
        <mxCell id="mXluGkaFJjg7Lm8uTVFK-17" value="&lt;div&gt;idContrato: id&lt;/div&gt;" style="rounded=0;whiteSpace=wrap;html=1;" vertex="1" parent="mXluGkaFJjg7Lm8uTVFK-30">
          <mxGeometry x="69.68" y="25" width="200.32" height="25" as="geometry" />
        </mxCell>
        <mxCell id="mXluGkaFJjg7Lm8uTVFK-18" value="&lt;div style=&quot;text-align: justify;&quot;&gt;objetoContrato: str&lt;/div&gt;&lt;div style=&quot;text-align: justify;&quot;&gt;dataPublicacao: date&lt;/div&gt;&lt;div style=&quot;text-align: justify;&quot;&gt;dataCelebracaoContrato:&amp;nbsp; date&lt;/div&gt;&lt;div style=&quot;text-align: justify;&quot;&gt;precoContratual: float&lt;/div&gt;&lt;div style=&quot;text-align: justify;&quot;&gt;procedimentoCentralizado: bool&lt;span style=&quot;background-color: initial; color: rgba(0, 0, 0, 0); font-family: monospace; font-size: 0px; text-align: left; text-wrap-mode: nowrap;&quot;&gt;%3CmxGraphModel%3E%3Croot%3E%3CmxCell%20id%3D%220%22%2F%3E%3CmxCell%20id%3D%221%22%20parent%3D%220%22%2F%3E%3CmxCell%20id%3D%222%22%20value%3D%22Contrato%22%20style%3D%22swimlane%3BwhiteSpace%3Dwrap%3Bhtml%3D1%3B%22%20vertex%3D%221%22%20parent%3D%221%22%3E%3CmxGeometry%20x%3D%22290%22%20y%3D%2250%22%20width%3D%22200%22%20height%3D%22200%22%20as%3D%22geometry%22%3E%3CmxRectangle%20x%3D%22290%22%20y%3D%2250%22%20width%3D%2290%22%20height%3D%2230%22%20as%3D%22alternateBounds%22%2F%3E%3C%2FmxGeometry%3E%3C%2FmxCell%3E%3CmxCell%20id%3D%223%22%20value%3D%22%26lt%3Bdiv%20style%3D%26quot%3Btext-align%3A%20justify%3B%26quot%3B%26gt%3BidContrato%26lt%3B%2Fdiv%26gt%3B%26lt%3Bdiv%20style%3D%26quot%3Btext-align%3A%20justify%3B%26quot%3B%26gt%3BtipoContrato%26lt%3B%2Fdiv%26gt%3B%26lt%3Bdiv%20style%3D%26quot%3Btext-align%3A%20justify%3B%26quot%3B%26gt%3BdataPublicacao%26lt%3B%2Fdiv%26gt%3B%26lt%3Bdiv%20style%3D%26quot%3Btext-align%3A%20justify%3B%26quot%3B%26gt%3BprecoContratual%26lt%3B%2Fdiv%26gt%3B%26lt%3Bdiv%20style%3D%26quot%3Btext-align%3A%20justify%3B%26quot%3B%26gt%3Bcpv%26lt%3B%2Fdiv%26gt%3B%26lt%3Bdiv%20style%3D%26quot%3Btext-align%3A%20justify%3B%26quot%3B%26gt%3BprocedimentoCentralizado%26lt%3B%2Fdiv%26gt%3B%26lt%3Bdiv%20style%3D%26quot%3Btext-align%3A%20justify%3B%26quot%3B%26gt%3BdescrAcordoQuadro%26lt%3B%2Fdiv%26gt%3B%26lt%3Bdiv%20style%3D%26quot%3Btext-align%3A%20justify%3B%26quot%3B%26gt%3Bfundamentacao%26lt%3B%2Fdiv%26gt%3B%22%20style%3D%22whiteSpace%3Dwrap%3Bhtml%3D1%3Balign%3Dleft%3B%22%20vertex%3D%221%22%20parent%3D%222%22%3E%3CmxGeometry%20y%3D%2223%22%20width%3D%22200%22%20height%3D%22177%22%20as%3D%22geometry%22%2F%3E%3C%2FmxCell%3E%3C%2Froot%3E%3C%2FmxG&lt;/span&gt;&lt;/div&gt;&lt;div style=&quot;text-align: justify;&quot;&gt;&lt;span style=&quot;text-align: left;&quot;&gt;prazoExecucao: int&lt;/span&gt;&lt;/div&gt;&lt;div style=&quot;text-align: justify;&quot;&gt;&lt;span style=&quot;text-align: left;&quot;&gt;codigo_municipio: int&lt;br&gt;&lt;/span&gt;&lt;/div&gt;&lt;div style=&quot;text-align: justify;&quot;&gt;&lt;span style=&quot;text-align: left;&quot;&gt;nif_adjudicante: int ou string?&lt;/span&gt;&lt;/div&gt;&lt;div style=&quot;text-align: justify;&quot;&gt;&lt;span style=&quot;text-align: left;&quot;&gt;nif_adjudicatario: int/string?&lt;br&gt;&lt;/span&gt;&lt;/div&gt;" style="rounded=0;whiteSpace=wrap;html=1;" vertex="1" parent="mXluGkaFJjg7Lm8uTVFK-30">
          <mxGeometry x="69.68" y="50" width="200.32" height="149.99999999999997" as="geometry" />
        </mxCell>
        <mxCell id="mXluGkaFJjg7Lm8uTVFK-19" value="PK" style="rounded=0;whiteSpace=wrap;html=1;" vertex="1" parent="mXluGkaFJjg7Lm8uTVFK-30">
          <mxGeometry y="25" width="69.68333333333334" height="25" as="geometry" />
        </mxCell>
        <mxCell id="mXluGkaFJjg7Lm8uTVFK-20" value="&lt;div&gt;&lt;br&gt;&lt;/div&gt;&lt;div&gt;&lt;br&gt;&lt;/div&gt;&lt;div&gt;&lt;br&gt;&lt;/div&gt;&lt;div&gt;&lt;br&gt;&lt;/div&gt;&lt;div&gt;&lt;br&gt;&lt;/div&gt;&lt;div&gt;&lt;br&gt;&lt;/div&gt;&lt;div&gt;FK1&lt;/div&gt;&lt;div&gt;FK2&lt;/div&gt;&lt;div&gt;FK3&lt;br&gt;&lt;/div&gt;" style="rounded=0;whiteSpace=wrap;html=1;" vertex="1" parent="mXluGkaFJjg7Lm8uTVFK-30">
          <mxGeometry y="50" width="69.68" height="149.99999999999997" as="geometry" />
        </mxCell>
        <mxCell id="mXluGkaFJjg7Lm8uTVFK-32" value="" style="group" vertex="1" connectable="0" parent="1">
          <mxGeometry x="510" y="-1052" width="177" height="90" as="geometry" />
        </mxCell>
        <mxCell id="mXluGkaFJjg7Lm8uTVFK-33" value="" style="rounded=0;whiteSpace=wrap;html=1;" vertex="1" parent="mXluGkaFJjg7Lm8uTVFK-32">
          <mxGeometry width="177" height="60" as="geometry" />
        </mxCell>
        <mxCell id="mXluGkaFJjg7Lm8uTVFK-34" value="&lt;b&gt;Procedimento&lt;/b&gt;" style="rounded=0;whiteSpace=wrap;html=1;" vertex="1" parent="mXluGkaFJjg7Lm8uTVFK-32">
          <mxGeometry width="177" height="20" as="geometry" />
        </mxCell>
        <mxCell id="mXluGkaFJjg7Lm8uTVFK-35" value="idContrato" style="rounded=0;whiteSpace=wrap;html=1;" vertex="1" parent="mXluGkaFJjg7Lm8uTVFK-32">
          <mxGeometry x="54.575" y="20" width="122.42500000000001" height="20" as="geometry" />
        </mxCell>
        <mxCell id="mXluGkaFJjg7Lm8uTVFK-36" value="tipoProcedimento: str" style="rounded=0;whiteSpace=wrap;html=1;" vertex="1" parent="mXluGkaFJjg7Lm8uTVFK-32">
          <mxGeometry x="54.575" y="40" width="122.42500000000001" height="50" as="geometry" />
        </mxCell>
        <mxCell id="mXluGkaFJjg7Lm8uTVFK-37" value="PK" style="rounded=0;whiteSpace=wrap;html=1;" vertex="1" parent="mXluGkaFJjg7Lm8uTVFK-32">
          <mxGeometry y="20" width="54.575" height="20" as="geometry" />
        </mxCell>
        <mxCell id="mXluGkaFJjg7Lm8uTVFK-38" value="" style="rounded=0;whiteSpace=wrap;html=1;" vertex="1" parent="mXluGkaFJjg7Lm8uTVFK-32">
          <mxGeometry y="40" width="54.575" height="50" as="geometry" />
        </mxCell>
        <mxCell id="mXluGkaFJjg7Lm8uTVFK-39" style="edgeStyle=orthogonalEdgeStyle;rounded=0;orthogonalLoop=1;jettySize=auto;html=1;exitX=0.25;exitY=0;exitDx=0;exitDy=0;entryX=1;entryY=0.5;entryDx=0;entryDy=0;" edge="1" parent="1" source="mXluGkaFJjg7Lm8uTVFK-16" target="mXluGkaFJjg7Lm8uTVFK-10">
          <mxGeometry relative="1" as="geometry" />
        </mxCell>
        <mxCell id="mXluGkaFJjg7Lm8uTVFK-40" style="edgeStyle=orthogonalEdgeStyle;rounded=0;orthogonalLoop=1;jettySize=auto;html=1;exitX=0.75;exitY=0;exitDx=0;exitDy=0;entryX=0;entryY=0.5;entryDx=0;entryDy=0;" edge="1" parent="1" source="mXluGkaFJjg7Lm8uTVFK-16" target="mXluGkaFJjg7Lm8uTVFK-37">
          <mxGeometry relative="1" as="geometry" />
        </mxCell>
        <mxCell id="mXluGkaFJjg7Lm8uTVFK-41" value="" style="group" vertex="1" connectable="0" parent="1">
          <mxGeometry x="591.5" y="-918" width="177.01" height="90" as="geometry" />
        </mxCell>
        <mxCell id="mXluGkaFJjg7Lm8uTVFK-42" value="" style="rounded=0;whiteSpace=wrap;html=1;" vertex="1" parent="mXluGkaFJjg7Lm8uTVFK-41">
          <mxGeometry width="177" height="20" as="geometry" />
        </mxCell>
        <mxCell id="mXluGkaFJjg7Lm8uTVFK-43" value="&lt;b&gt;Municipio&lt;/b&gt;" style="rounded=0;whiteSpace=wrap;html=1;" vertex="1" parent="mXluGkaFJjg7Lm8uTVFK-41">
          <mxGeometry width="177" height="20" as="geometry" />
        </mxCell>
        <mxCell id="mXluGkaFJjg7Lm8uTVFK-44" value="codigo: int" style="rounded=0;whiteSpace=wrap;html=1;" vertex="1" parent="mXluGkaFJjg7Lm8uTVFK-41">
          <mxGeometry x="54.58" y="20" width="122.43" height="30" as="geometry" />
        </mxCell>
        <mxCell id="mXluGkaFJjg7Lm8uTVFK-45" value="&lt;div&gt;nome: str&lt;/div&gt;&lt;div&gt;distrito: int&lt;br&gt;&lt;/div&gt;" style="rounded=0;whiteSpace=wrap;html=1;" vertex="1" parent="mXluGkaFJjg7Lm8uTVFK-41">
          <mxGeometry x="54.575" y="50" width="122.42500000000001" height="50" as="geometry" />
        </mxCell>
        <mxCell id="mXluGkaFJjg7Lm8uTVFK-46" value="PK" style="rounded=0;whiteSpace=wrap;html=1;" vertex="1" parent="mXluGkaFJjg7Lm8uTVFK-41">
          <mxGeometry y="20" width="54.58" height="30" as="geometry" />
        </mxCell>
        <mxCell id="mXluGkaFJjg7Lm8uTVFK-47" value="&lt;div&gt;&lt;br&gt;&lt;/div&gt;&lt;div&gt;FK&lt;br&gt;&lt;/div&gt;" style="rounded=0;whiteSpace=wrap;html=1;" vertex="1" parent="mXluGkaFJjg7Lm8uTVFK-41">
          <mxGeometry y="50" width="54.575" height="50" as="geometry" />
        </mxCell>
        <mxCell id="mXluGkaFJjg7Lm8uTVFK-49" style="edgeStyle=orthogonalEdgeStyle;rounded=0;orthogonalLoop=1;jettySize=auto;html=1;exitX=1;exitY=0.5;exitDx=0;exitDy=0;entryX=0;entryY=0.5;entryDx=0;entryDy=0;" edge="1" parent="1" source="mXluGkaFJjg7Lm8uTVFK-17" target="mXluGkaFJjg7Lm8uTVFK-46">
          <mxGeometry relative="1" as="geometry" />
        </mxCell>
        <mxCell id="mXluGkaFJjg7Lm8uTVFK-57" value="" style="group" vertex="1" connectable="0" parent="1">
          <mxGeometry x="590" y="-800" width="177.01" height="90" as="geometry" />
        </mxCell>
        <mxCell id="mXluGkaFJjg7Lm8uTVFK-58" value="" style="rounded=0;whiteSpace=wrap;html=1;" vertex="1" parent="mXluGkaFJjg7Lm8uTVFK-57">
          <mxGeometry width="177" height="20" as="geometry" />
        </mxCell>
        <mxCell id="mXluGkaFJjg7Lm8uTVFK-59" value="&lt;b&gt;Distrito&lt;/b&gt;" style="rounded=0;whiteSpace=wrap;html=1;" vertex="1" parent="mXluGkaFJjg7Lm8uTVFK-57">
          <mxGeometry width="177" height="20" as="geometry" />
        </mxCell>
        <mxCell id="mXluGkaFJjg7Lm8uTVFK-60" value="codigo:int" style="rounded=0;whiteSpace=wrap;html=1;" vertex="1" parent="mXluGkaFJjg7Lm8uTVFK-57">
          <mxGeometry x="54.58" y="20" width="122.43" height="30" as="geometry" />
        </mxCell>
        <mxCell id="mXluGkaFJjg7Lm8uTVFK-61" value="&lt;div&gt;nome: str&lt;/div&gt;&lt;div&gt;pais: int&lt;br&gt;&lt;/div&gt;" style="rounded=0;whiteSpace=wrap;html=1;" vertex="1" parent="mXluGkaFJjg7Lm8uTVFK-57">
          <mxGeometry x="54.575" y="50" width="122.42500000000001" height="50" as="geometry" />
        </mxCell>
        <mxCell id="mXluGkaFJjg7Lm8uTVFK-62" value="PK" style="rounded=0;whiteSpace=wrap;html=1;" vertex="1" parent="mXluGkaFJjg7Lm8uTVFK-57">
          <mxGeometry y="20" width="54.58" height="30" as="geometry" />
        </mxCell>
        <mxCell id="mXluGkaFJjg7Lm8uTVFK-63" value="&lt;div&gt;&lt;br&gt;&lt;/div&gt;&lt;div&gt;FK&lt;br&gt;&lt;/div&gt;" style="rounded=0;whiteSpace=wrap;html=1;" vertex="1" parent="mXluGkaFJjg7Lm8uTVFK-57">
          <mxGeometry y="50" width="54.575" height="50" as="geometry" />
        </mxCell>
        <mxCell id="mXluGkaFJjg7Lm8uTVFK-64" value="" style="group" vertex="1" connectable="0" parent="1">
          <mxGeometry x="590" y="-668" width="177.01" height="80" as="geometry" />
        </mxCell>
        <mxCell id="mXluGkaFJjg7Lm8uTVFK-65" value="" style="rounded=0;whiteSpace=wrap;html=1;" vertex="1" parent="mXluGkaFJjg7Lm8uTVFK-64">
          <mxGeometry width="177" height="17.77777777777778" as="geometry" />
        </mxCell>
        <mxCell id="mXluGkaFJjg7Lm8uTVFK-66" value="&lt;b&gt;Pais&lt;/b&gt;" style="rounded=0;whiteSpace=wrap;html=1;" vertex="1" parent="mXluGkaFJjg7Lm8uTVFK-64">
          <mxGeometry width="177" height="17.77777777777778" as="geometry" />
        </mxCell>
        <mxCell id="mXluGkaFJjg7Lm8uTVFK-67" value="codigo:int" style="rounded=0;whiteSpace=wrap;html=1;" vertex="1" parent="mXluGkaFJjg7Lm8uTVFK-64">
          <mxGeometry x="54.58" y="17.77777777777778" width="122.43" height="26.666666666666664" as="geometry" />
        </mxCell>
        <mxCell id="mXluGkaFJjg7Lm8uTVFK-68" value="&lt;div&gt;nome: str&lt;/div&gt;" style="rounded=0;whiteSpace=wrap;html=1;" vertex="1" parent="mXluGkaFJjg7Lm8uTVFK-64">
          <mxGeometry x="54.58" y="44.44" width="122.43" height="35.56" as="geometry" />
        </mxCell>
        <mxCell id="mXluGkaFJjg7Lm8uTVFK-69" value="PK" style="rounded=0;whiteSpace=wrap;html=1;" vertex="1" parent="mXluGkaFJjg7Lm8uTVFK-64">
          <mxGeometry y="17.77777777777778" width="54.58" height="26.666666666666664" as="geometry" />
        </mxCell>
        <mxCell id="mXluGkaFJjg7Lm8uTVFK-70" value="" style="rounded=0;whiteSpace=wrap;html=1;" vertex="1" parent="mXluGkaFJjg7Lm8uTVFK-64">
          <mxGeometry y="44.44" width="54.58" height="35.56" as="geometry" />
        </mxCell>
        <mxCell id="mXluGkaFJjg7Lm8uTVFK-73" style="edgeStyle=orthogonalEdgeStyle;rounded=0;orthogonalLoop=1;jettySize=auto;html=1;exitX=0.25;exitY=1;exitDx=0;exitDy=0;entryX=0.5;entryY=0;entryDx=0;entryDy=0;" edge="1" parent="1" source="mXluGkaFJjg7Lm8uTVFK-61" target="mXluGkaFJjg7Lm8uTVFK-66">
          <mxGeometry relative="1" as="geometry" />
        </mxCell>
        <mxCell id="mXluGkaFJjg7Lm8uTVFK-74" style="edgeStyle=orthogonalEdgeStyle;rounded=0;orthogonalLoop=1;jettySize=auto;html=1;exitX=0.25;exitY=1;exitDx=0;exitDy=0;entryX=0.5;entryY=0;entryDx=0;entryDy=0;" edge="1" parent="1" source="mXluGkaFJjg7Lm8uTVFK-45" target="mXluGkaFJjg7Lm8uTVFK-59">
          <mxGeometry relative="1" as="geometry" />
        </mxCell>
        <mxCell id="mXluGkaFJjg7Lm8uTVFK-82" value="No local que tem artigo, por exemplo, Fundamentação, é melhor adiconar o artivo a relação Contrato, como um chave externa ou é melhhor adicionar o idContrato a relação Fundamentação?" style="text;html=1;align=center;verticalAlign=middle;whiteSpace=wrap;rounded=0;" vertex="1" parent="1">
          <mxGeometry x="70" y="-360" width="350" height="60" as="geometry" />
        </mxCell>
        <mxCell id="mXluGkaFJjg7Lm8uTVFK-83" value="" style="group" vertex="1" connectable="0" parent="1">
          <mxGeometry x="325" y="-600" width="177" height="90" as="geometry" />
        </mxCell>
        <mxCell id="mXluGkaFJjg7Lm8uTVFK-84" value="" style="rounded=0;whiteSpace=wrap;html=1;" vertex="1" parent="mXluGkaFJjg7Lm8uTVFK-83">
          <mxGeometry width="177" height="60" as="geometry" />
        </mxCell>
        <mxCell id="mXluGkaFJjg7Lm8uTVFK-85" value="&lt;b&gt;Entidade&lt;/b&gt;" style="rounded=0;whiteSpace=wrap;html=1;" vertex="1" parent="mXluGkaFJjg7Lm8uTVFK-83">
          <mxGeometry width="177" height="20" as="geometry" />
        </mxCell>
        <mxCell id="mXluGkaFJjg7Lm8uTVFK-86" value="nif" style="rounded=0;whiteSpace=wrap;html=1;" vertex="1" parent="mXluGkaFJjg7Lm8uTVFK-83">
          <mxGeometry x="54.575" y="20" width="122.42500000000001" height="20" as="geometry" />
        </mxCell>
        <mxCell id="mXluGkaFJjg7Lm8uTVFK-87" value="designacao: str" style="rounded=0;whiteSpace=wrap;html=1;" vertex="1" parent="mXluGkaFJjg7Lm8uTVFK-83">
          <mxGeometry x="54.575" y="40" width="122.42500000000001" height="50" as="geometry" />
        </mxCell>
        <mxCell id="mXluGkaFJjg7Lm8uTVFK-88" value="PK" style="rounded=0;whiteSpace=wrap;html=1;" vertex="1" parent="mXluGkaFJjg7Lm8uTVFK-83">
          <mxGeometry y="20" width="54.575" height="20" as="geometry" />
        </mxCell>
        <mxCell id="mXluGkaFJjg7Lm8uTVFK-89" value="" style="rounded=0;whiteSpace=wrap;html=1;" vertex="1" parent="mXluGkaFJjg7Lm8uTVFK-83">
          <mxGeometry y="40" width="54.575" height="50" as="geometry" />
        </mxCell>
        <mxCell id="mXluGkaFJjg7Lm8uTVFK-90" style="edgeStyle=orthogonalEdgeStyle;rounded=0;orthogonalLoop=1;jettySize=auto;html=1;exitX=0.5;exitY=1;exitDx=0;exitDy=0;entryX=0.5;entryY=0;entryDx=0;entryDy=0;" edge="1" parent="1" source="mXluGkaFJjg7Lm8uTVFK-18" target="mXluGkaFJjg7Lm8uTVFK-85">
          <mxGeometry relative="1" as="geometry" />
        </mxCell>
      </root>
    </mxGraphModel>
  </diagram>
</mxfile>
